<?xml version="1.0" encoding="UTF-8" standalone="no"?>
<!-- Created with Inkscape (http://www.inkscape.org/) -->

<svg
   xmlns:dc="http://purl.org/dc/elements/1.1/"
   xmlns:cc="http://creativecommons.org/ns#"
   xmlns:rdf="http://www.w3.org/1999/02/22-rdf-syntax-ns#"
   xmlns:svg="http://www.w3.org/2000/svg"
   xmlns="http://www.w3.org/2000/svg"
   xmlns:sodipodi="http://sodipodi.sourceforge.net/DTD/sodipodi-0.dtd"
   xmlns:inkscape="http://www.inkscape.org/namespaces/inkscape"
   width="210mm"
   height="297mm"
   viewBox="0 0 744.09448819 1052.3622047"
   id="svg2"
   version="1.1"
   inkscape:version="0.91 r13725"
   sodipodi:docname="lightning.svg"
   style="fill:white;">
  <defs>
    <style type="text/css"><![CDATA[
      @keyframes color-flare {
        0% { fill: grey; }
        7% { fill: grey; }
        10% { fill: #00ccff; }
        13% { fill: grey; }
        60% { fill: lightgrey; }
        100% { fill: grey; }
      }
      @keyframes color-flare2 {
        0% { fill: #00ccff; }
        3% { fill: grey; }
        47% { fill : grey; }
        50% { fill: #00ccff; }
        52% { fill: grey; }
        97% { fill: grey; }
        100% { fill: #00ccff; }

      }
      #path3445 {
        animation: color-flare 2.5s linear infinite;
      }
      #path3447 {
        animation: color-flare2 3s linear infinite;
      }
    ]]></style>
  </defs>
  <g
     inkscape:label="Layer 1"
     inkscape:groupmode="layer"
     id="layer1">
    <path
       d="m 240.22093,966.8836 c 0,-1.53958 11.45513,-81.85141 25.45584,-178.47072 14.00072,-96.61932 25.45585,-175.91134 25.45585,-176.20449 0,-0.29315 -61.46526,-0.533 -136.58946,-0.533 -77.781311,0 -136.386501,-0.53439 -136.118061,-1.2412 1.42094,-3.74127 392.280741,-592.405984 392.646801,-591.356046 0.24104,0.691347 -23.10787,89.919926 -51.88644,198.285726 -28.77858,108.3658 -52.7498,198.7759 -53.26938,200.91134 l -0.94471,3.88261 149.3172,0.36003 149.31719,0.36003 -111.78201,168.29141 C 267.4469,928.97584 240.22093,969.63192 240.22093,966.8836 Z"
       id="path3445"
       inkscape:connector-curvature="0" />
    <path
       d="m 520.2352,1032.9122 c 0,-0.4204 6.3635,-43.34529 14.1412,-95.38866 7.7776,-52.04333 14.1416,-96.0507 14.1421,-97.79414 l 10e-4,-3.1699 -76.9371,-0.36564 -76.93716,-0.36563 110.52466,-162.0601 c 60.7886,-89.13306 110.6871,-161.6725 110.8855,-161.19876 0.1984,0.47375 -13.0068,49.71169 -29.3449,109.41765 -16.3382,59.70597 -29.7057,109.17605 -29.7057,109.93351 0,0.87805 30.4984,1.37722 84.1457,1.37722 46.2801,0 84.1457,0.28512 84.1457,0.6336 0,0.69343 -201.8876,296.22055 -203.8514,298.40185 -0.6653,0.7389 -1.2096,0.9995 -1.2096,0.579 z"
       id="path3447"
       inkscape:connector-curvature="0" />
  </g>
</svg>